<svg id="Layer_1" height="512" viewBox="0 0 512 512" width="512" xmlns="http://www.w3.org/2000/svg" data-name="Layer 1"><path d="m394.25 72.62 22.05 17.03 34.27 4.58a4.241 4.241 0 0 1 3.89 6.8l-29.4 18.73-10.63 33.1a4.246 4.246 0 0 1 -7.57-2.05l-13.14-31.92-22.06-17.04-25.7 33.27a3.686 3.686 0 0 1 -5.18.67l-6.91-5.33a7.407 7.407 0 0 1 -2.1-9.13l18.03-36.36-46.44-35.87a18.472 18.472 0 1 1 22.58-29.24l46.44 35.87 30.63-26.63a7.388 7.388 0 0 1 9.37-.27l6.9 5.33a3.694 3.694 0 0 1 .66 5.18z" fill="#e5f5fd"/><path d="m262.99 172.29a14.826 14.826 0 0 1 -6.51 14.81l-23.18 15.18a14.834 14.834 0 0 0 -6.44 15.19l3.12 16.31a14.847 14.847 0 0 0 8.13 10.58l16.28 7.84a14.821 14.821 0 0 1 8.16 15.99l-5.93 32.94a14.889 14.889 0 0 1 -2.72 6.26 14.833 14.833 0 0 1 -25.33-2.63l-5.96-12.85a14.846 14.846 0 0 0 -13.45-8.58h-24.13a14.826 14.826 0 0 0 -8.52 2.69l-16.23 11.39a14.806 14.806 0 0 1 -11.94 2.29l-27.98-6.64h-.01a138.1 138.1 0 0 1 135.65-163.25z" fill="#d8ff33"/><path d="m150.36 293.06h-.01a138.147 138.147 0 0 1 106.171-160.082l-.521-3.168a138.1 138.1 0 0 0 -135.65 163.25h.01l27.98 6.64a14.806 14.806 0 0 0 11.94-2.29l2.125-1.492z" fill="#c6e02d"/><path d="m366.3 184.91-15.38 10.95a24.347 24.347 0 0 0 -9.47 13.82l-3.24 12.65a24.331 24.331 0 0 0 8.6 25.26 24.375 24.375 0 0 1 8.78 24.55l-6.54 29.2a24.4 24.4 0 0 1 -6.64 11.99l-5.71 5.66a24.4 24.4 0 0 0 -7.08 19.97l4.63 42.43.01.01a138 138 0 0 1 -213.91-88.34h.01l27.98 6.64a14.806 14.806 0 0 0 11.94-2.29l16.23-11.39a14.826 14.826 0 0 1 8.52-2.69h24.13a14.846 14.846 0 0 1 13.45 8.58l5.96 12.85a14.833 14.833 0 0 0 28.05-3.63l5.93-32.94a14.821 14.821 0 0 0 -8.16-15.99l-16.28-7.84a14.847 14.847 0 0 1 -8.13-10.58l-3.12-16.31a14.834 14.834 0 0 1 6.44-15.19l23.18-15.18a14.826 14.826 0 0 0 6.51-14.81l-6.99-42.48a137.716 137.716 0 0 1 110.3 55.1z" fill="#50a6ea"/><path d="m151.851 300.086a14.773 14.773 0 0 1 -3.511-.386l-27.98-6.64h-.01a138.016 138.016 0 0 0 135.65 112.67 139.626 139.626 0 0 0 14.942-.817 138.081 138.081 0 0 1 -119.091-104.827z" fill="#72bcef"/><path d="m366.3 184.91a137.97 137.97 0 0 1 -32.04 196.49l-.01-.01-4.63-42.43a24.4 24.4 0 0 1 7.08-19.97l5.71-5.66a24.4 24.4 0 0 0 6.64-11.99l6.54-29.2a24.375 24.375 0 0 0 -8.78-24.55 24.331 24.331 0 0 1 -8.6-25.26l3.24-12.65a24.347 24.347 0 0 1 9.47-13.82z" fill="#d8ff33"/><path d="m234.826 499c-.2 0-.4-.009-.6-.028a229.474 229.474 0 0 1 -32.262-5.387 6.367 6.367 0 1 1 2.991-12.378 216.931 216.931 0 0 0 30.467 5.086 6.368 6.368 0 0 1 -.596 12.707zm42.355 0a6.368 6.368 0 0 1 -.59-12.707 216.615 216.615 0 0 0 30.465-5.087 6.367 6.367 0 0 1 2.993 12.378 229.659 229.659 0 0 1 -32.263 5.388q-.304.028-.605.028zm-113.781-19.092a6.334 6.334 0 0 1 -2.644-.578 229.755 229.755 0 0 1 -28.709-15.707 6.368 6.368 0 0 1 6.895-10.708 216.888 216.888 0 0 0 27.111 14.835 6.367 6.367 0 0 1 -2.653 12.158zm185.2 0a6.369 6.369 0 0 1 -2.652-12.16 216.559 216.559 0 0 0 27.085-14.816 6.368 6.368 0 0 1 6.894 10.708 229.381 229.381 0 0 1 -28.683 15.69 6.356 6.356 0 0 1 -2.644.577zm61.178-41.468a6.367 6.367 0 0 1 -4.395-10.975 218.609 218.609 0 0 0 20.794-22.858 6.367 6.367 0 1 1 10 7.878 231.129 231.129 0 0 1 -22.009 24.2 6.35 6.35 0 0 1 -4.391 1.754zm-307.578-.022a6.347 6.347 0 0 1 -4.394-1.76 231.412 231.412 0 0 1 -22-24.194 6.368 6.368 0 0 1 10.006-7.878 218.461 218.461 0 0 0 20.788 22.857 6.368 6.368 0 0 1 -4.4 10.975zm351.916-59.136a6.369 6.369 0 0 1 -5.652-9.291 215.688 215.688 0 0 0 12.178-28.4 6.367 6.367 0 0 1 12.035 4.164 228.59 228.59 0 0 1 -12.9 30.084 6.365 6.365 0 0 1 -5.66 3.443zm-396.245-.019a6.364 6.364 0 0 1 -5.662-3.447 228.6 228.6 0 0 1 -12.89-30.069 6.367 6.367 0 0 1 12.034-4.164 216.109 216.109 0 0 0 12.17 28.39 6.369 6.369 0 0 1 -5.652 9.29zm418.754-70.406a6.638 6.638 0 0 1 -.906-.064 6.369 6.369 0 0 1 -5.406-7.2 219.29 219.29 0 0 0 2.176-30.821 6.368 6.368 0 1 1 12.735 0 232.151 232.151 0 0 1 -2.3 32.618 6.371 6.371 0 0 1 -6.298 5.467zm-441.252-.007a6.369 6.369 0 0 1 -6.295-5.47 231.912 231.912 0 0 1 -2.3-32.611 6.368 6.368 0 1 1 12.735-.01 219.065 219.065 0 0 0 2.175 30.824 6.367 6.367 0 0 1 -5.406 7.2 6.474 6.474 0 0 1 -.909.067zm441.239-63.42a6.369 6.369 0 0 1 -6.3-5.471 216.02 216.02 0 0 0 -6.535-30.186 6.368 6.368 0 0 1 12.223-3.582 228.86 228.86 0 0 1 6.921 31.973 6.368 6.368 0 0 1 -5.406 7.2 6.623 6.623 0 0 1 -.903.066zm-439.475-10.482a6.374 6.374 0 0 1 -6.261-7.566 228.6 228.6 0 0 1 8.449-31.606 6.367 6.367 0 0 1 12.034 4.164 215.718 215.718 0 0 0 -7.975 29.838 6.37 6.37 0 0 1 -6.247 5.17zm417-59.931a6.366 6.366 0 0 1 -5.663-3.447 217.164 217.164 0 0 0 -16.092-26.355 6.367 6.367 0 0 1 10.368-7.393 229.725 229.725 0 0 1 17.039 27.905 6.369 6.369 0 0 1 -5.652 9.29zm-391.175-9.329a6.368 6.368 0 0 1 -5.505-9.557 230.529 230.529 0 0 1 18.362-27.079 6.368 6.368 0 0 1 10 7.881 217.415 217.415 0 0 0 -17.345 25.576 6.364 6.364 0 0 1 -5.512 3.179zm47.114-56.994a6.367 6.367 0 0 1 -4.176-11.178 230.915 230.915 0 0 1 26.166-19.616 6.368 6.368 0 0 1 6.9 10.708 217.974 217.974 0 0 0 -24.717 18.527 6.343 6.343 0 0 1 -4.173 1.559zm63.088-38.51a6.369 6.369 0 0 1 -2.37-12.28 228.152 228.152 0 0 1 31.166-9.952 6.368 6.368 0 1 1 2.991 12.379 215.456 215.456 0 0 0 -29.421 9.394 6.347 6.347 0 0 1 -2.366.459zm104.036-14.911q-.3 0-.606-.028a221.145 221.145 0 0 0 -30.894-.725 6.368 6.368 0 1 1 -.6-12.721 234.253 234.253 0 0 1 32.688.767 6.368 6.368 0 0 1 -.591 12.707z" fill="#ed6337"/><path d="m234.826 499.5c-.215 0-.431-.01-.65-.03a230.181 230.181 0 0 1 -32.334-5.4 6.868 6.868 0 0 1 3.226-13.352 216.214 216.214 0 0 0 30.4 5.075 6.868 6.868 0 0 1 -.638 13.7zm-31.383-17.974a5.869 5.869 0 0 0 -1.367 11.573 228.987 228.987 0 0 0 32.192 5.375 5.867 5.867 0 1 0 1.1-11.683 217.177 217.177 0 0 1 -30.537-5.1 5.844 5.844 0 0 0 -1.388-.165zm73.738 17.974a6.868 6.868 0 0 1 -.637-13.705 215.864 215.864 0 0 0 30.4-5.076 6.868 6.868 0 0 1 3.227 13.352 230.435 230.435 0 0 1 -32.333 5.4q-.338.029-.657.029zm31.367-17.972a5.857 5.857 0 0 0 -1.375.164 216.778 216.778 0 0 1 -30.536 5.1 5.867 5.867 0 0 0 1.1 11.683 229.168 229.168 0 0 0 32.191-5.376 5.867 5.867 0 0 0 -1.383-11.57zm-145.148-1.119a6.792 6.792 0 0 1 -2.853-.625 230.147 230.147 0 0 1 -28.771-15.741 6.867 6.867 0 1 1 7.437-11.547 216.4 216.4 0 0 0 27.048 14.8 6.869 6.869 0 0 1 -2.861 13.115zm-27.891-28.009a5.942 5.942 0 0 0 -1.254.135 5.869 5.869 0 0 0 -1.935 10.665 229.106 229.106 0 0 0 28.646 15.67 5.8 5.8 0 0 0 2.436.535 5.868 5.868 0 0 0 2.445-11.2 217.523 217.523 0 0 1 -27.174-14.87 5.83 5.83 0 0 0 -3.164-.935zm213.091 28.008a6.87 6.87 0 0 1 -2.86-13.117 215.747 215.747 0 0 0 27.022-14.781 6.868 6.868 0 0 1 7.435 11.549 229.933 229.933 0 0 1 -28.745 15.725 6.819 6.819 0 0 1 -2.852.624zm27.87-27.989a5.842 5.842 0 0 0 -3.167.932 216.956 216.956 0 0 1 -27.148 14.849 5.869 5.869 0 0 0 2.444 11.206 5.81 5.81 0 0 0 2.436-.535 228.525 228.525 0 0 0 28.62-15.655 5.866 5.866 0 0 0 -3.186-10.8zm33.309-13.48a6.868 6.868 0 0 1 -4.741-11.838 217.941 217.941 0 0 0 20.745-22.801 6.867 6.867 0 0 1 10.79 8.5 231.616 231.616 0 0 1 -22.057 24.249 6.842 6.842 0 0 1 -4.738 1.89zm21.411-36.263a5.945 5.945 0 0 0 -.7.042 5.824 5.824 0 0 0 -3.917 2.2 219.217 219.217 0 0 1 -20.842 22.911 5.867 5.867 0 0 0 8.1 8.492 230.571 230.571 0 0 0 21.962-24.144 5.869 5.869 0 0 0 -4.6-9.5zm-328.99 36.241a6.828 6.828 0 0 1 -4.739-1.9 231.718 231.718 0 0 1 -22.051-24.245 6.867 6.867 0 1 1 10.791-8.5 217.9 217.9 0 0 0 20.74 22.8 6.877 6.877 0 0 1 .229 9.71 6.8 6.8 0 0 1 -4.97 2.135zm-21.4-36.26a5.868 5.868 0 0 0 -4.6 9.5 230.784 230.784 0 0 0 21.952 24.143 5.868 5.868 0 0 0 8.1-8.492 218.967 218.967 0 0 1 -20.836-22.908 5.83 5.83 0 0 0 -3.917-2.2 5.973 5.973 0 0 0 -.699-.043zm373.322-22.874a6.87 6.87 0 0 1 -6.1-10.021 215.218 215.218 0 0 0 12.149-28.337 6.867 6.867 0 1 1 12.98 4.49 229.119 229.119 0 0 1 -12.926 30.151 6.849 6.849 0 0 1 -6.108 3.717zm12.534-41.983a5.883 5.883 0 0 0 -5.541 3.952 216.126 216.126 0 0 1 -12.206 28.47 5.875 5.875 0 0 0 2.52 7.906 5.863 5.863 0 0 0 7.906-2.52 228.274 228.274 0 0 0 12.87-30.018 5.867 5.867 0 0 0 -3.626-7.464 5.89 5.89 0 0 0 -1.923-.326zm-408.784 41.963a6.85 6.85 0 0 1 -6.107-3.718 229.176 229.176 0 0 1 -12.918-30.135 6.867 6.867 0 0 1 12.98-4.491 215.466 215.466 0 0 0 12.142 28.325 6.869 6.869 0 0 1 -2.95 9.256 6.912 6.912 0 0 1 -3.147.763zm-12.54-41.963a5.869 5.869 0 0 0 -5.54 7.786 228.1 228.1 0 0 0 12.862 30 5.867 5.867 0 1 0 10.426-5.386 216.413 216.413 0 0 1 -12.2-28.457 5.88 5.88 0 0 0 -5.548-3.943zm431.294-28.44a7.185 7.185 0 0 1 -.976-.069 6.868 6.868 0 0 1 -5.83-7.768 218.906 218.906 0 0 0 2.17-30.751 6.868 6.868 0 0 1 13.735 0 232.685 232.685 0 0 1 -2.308 32.688 6.9 6.9 0 0 1 -6.791 5.897zm2.232-44.455a5.875 5.875 0 0 0 -5.868 5.867 219.859 219.859 0 0 1 -2.18 30.892 5.866 5.866 0 0 0 4.981 6.636 5.9 5.9 0 0 0 6.636-4.98 231.607 231.607 0 0 0 2.3-32.548 5.874 5.874 0 0 0 -5.869-5.872zm-443.485 44.445a6.9 6.9 0 0 1 -6.79-5.9 232.414 232.414 0 0 1 -2.308-32.681 6.868 6.868 0 1 1 13.735-.01 218.689 218.689 0 0 0 2.17 30.753 6.878 6.878 0 0 1 -5.83 7.769 7.207 7.207 0 0 1 -.977.069zm-2.231-44.45a5.877 5.877 0 0 0 -5.867 5.873 231.462 231.462 0 0 0 2.3 32.54 5.867 5.867 0 1 0 11.617-1.656 219.631 219.631 0 0 1 -2.18-30.894 5.874 5.874 0 0 0 -5.87-5.863zm443.47-18.966a6.9 6.9 0 0 1 -6.791-5.9 215.578 215.578 0 0 0 -6.52-30.115 6.867 6.867 0 1 1 13.18-3.864 229.26 229.26 0 0 1 6.937 32.043 6.876 6.876 0 0 1 -5.83 7.768 7.192 7.192 0 0 1 -.976.064zm-6.712-43.822a5.874 5.874 0 0 0 -5.639 7.52 216.5 216.5 0 0 1 6.55 30.256 5.867 5.867 0 1 0 11.617-1.654 228.319 228.319 0 0 0 -6.906-31.9 5.875 5.875 0 0 0 -5.622-4.219zm-432.763 33.336a6.935 6.935 0 0 1 -1.3-.123 6.869 6.869 0 0 1 -5.453-8.037 228.989 228.989 0 0 1 8.467-31.675 6.867 6.867 0 1 1 12.98 4.49 215.287 215.287 0 0 0 -7.957 29.769 6.872 6.872 0 0 1 -6.737 5.576zm8.21-43.457a5.878 5.878 0 0 0 -5.55 3.948 228.3 228.3 0 0 0 -8.43 31.536 5.868 5.868 0 1 0 11.526 2.209 216.219 216.219 0 0 1 7.994-29.907 5.868 5.868 0 0 0 -5.54-7.786zm408.794-16.474a6.847 6.847 0 0 1 -6.107-3.718 216.87 216.87 0 0 0 -16.055-26.294 6.867 6.867 0 1 1 11.183-7.973 230.455 230.455 0 0 1 17.075 27.968 6.869 6.869 0 0 1 -6.1 10.02zm-16.583-39.869a5.87 5.87 0 0 0 -4.765 9.277 217.8 217.8 0 0 1 16.129 26.415 5.867 5.867 0 1 0 10.427-5.384 229.535 229.535 0 0 0 -17-27.844 5.83 5.83 0 0 0 -3.808-2.382 5.922 5.922 0 0 0 -.983-.082zm-374.6 30.541a6.869 6.869 0 0 1 -5.938-10.308 230.97 230.97 0 0 1 18.4-27.138 6.868 6.868 0 1 1 10.79 8.5 216.84 216.84 0 0 0 -17.3 25.516 6.9 6.9 0 0 1 -5.948 3.43zm17.866-39.062a5.862 5.862 0 0 0 -4.616 2.235 230.145 230.145 0 0 0 -18.323 27.019 5.87 5.87 0 0 0 5.073 8.808 5.894 5.894 0 0 0 5.085-2.93 217.875 217.875 0 0 1 17.384-25.636 5.864 5.864 0 0 0 -4.6-9.5zm29.248-17.933a6.868 6.868 0 0 1 -4.5-12.056 231.436 231.436 0 0 1 26.221-19.655 6.868 6.868 0 1 1 7.436 11.548 217.73 217.73 0 0 0 -24.659 18.484 6.866 6.866 0 0 1 -4.494 1.679zm25.427-31.8a5.829 5.829 0 0 0 -3.167.933 230.474 230.474 0 0 0 -26.107 19.57 5.867 5.867 0 1 0 7.688 8.865 218.445 218.445 0 0 1 24.777-18.571 5.867 5.867 0 0 0 -3.187-10.8zm37.661-6.707a6.868 6.868 0 0 1 -2.556-13.243 228.585 228.585 0 0 1 31.235-9.975 6.867 6.867 0 0 1 3.225 13.351 215.013 215.013 0 0 0 -29.352 9.372 6.829 6.829 0 0 1 -2.548.492zm30.3-22.412a5.942 5.942 0 0 0 -1.39.167 227.526 227.526 0 0 0 -31.1 9.93 5.867 5.867 0 1 0 4.364 10.892 216.147 216.147 0 0 1 29.489-9.417 5.868 5.868 0 0 0 -1.366-11.572zm73.731 7.5q-.322 0-.651-.029a219.643 219.643 0 0 0 -30.826-.725 6.71 6.71 0 0 1 -4.913-1.735 6.88 6.88 0 0 1 4.27-11.984 233.117 233.117 0 0 1 32.758.769 6.867 6.867 0 0 1 -.638 13.7zm-21.213-1.994c6.9 0 13.816.323 20.654.968a5.867 5.867 0 1 0 1.1-11.682 232.02 232.02 0 0 0 -32.617-.767 5.881 5.881 0 0 0 -3.647 10.243 5.731 5.731 0 0 0 4.191 1.48q5.154-.243 10.326-.244z" fill="#ed6337"/><g fill="#b9c8db"><path d="m333.571 58.062a7.107 7.107 0 1 1 4.353-12.732 7.106 7.106 0 0 1 -4.354 12.732z"/><path d="m351.11 71.618a7.109 7.109 0 1 1 4.358-12.737 7.113 7.113 0 0 1 -4.359 12.736z"/><path d="m368.661 85.165a7.107 7.107 0 1 1 4.351-12.732 7.105 7.105 0 0 1 -4.352 12.732z"/><path d="m386.2 98.721a7.109 7.109 0 1 1 4.359-12.736 7.112 7.112 0 0 1 -4.359 12.736z"/></g></svg>